<svg xmlns="http://www.w3.org/2000/svg" viewBox="0 0 16 16" width="16" height="16" shape-rendering="crispEdges">
  <rect x="10" y="1" width="2" height="1" fill="#13396b"/>
  <rect x="7" y="2" width="2" height="1" fill="#0b0b0b"/>
  <rect x="10" y="2" width="2" height="1" fill="#13396b"/>
  <rect x="6" y="3" width="1" height="1" fill="#0b0b0b"/>
  <rect x="7" y="3" width="1" height="1" fill="#2a78d6"/>
  <rect x="8" y="3" width="1" height="1" fill="#184f95"/>
  <rect x="9" y="3" width="1" height="1" fill="#0b0b0b"/>
  <rect x="10" y="3" width="2" height="1" fill="#13396b"/>
  <rect x="5" y="4" width="1" height="1" fill="#0b0b0b"/>
  <rect x="6" y="4" width="2" height="1" fill="#2a78d6"/>
  <rect x="8" y="4" width="2" height="1" fill="#184f95"/>
  <rect x="10" y="4" width="2" height="1" fill="#13396b"/>
  <rect x="4" y="5" width="1" height="1" fill="#0b0b0b"/>
  <rect x="5" y="5" width="3" height="1" fill="#2a78d6"/>
  <rect x="8" y="5" width="2" height="1" fill="#184f95"/>
  <rect x="10" y="5" width="2" height="1" fill="#13396b"/>
  <rect x="3" y="6" width="1" height="1" fill="#0b0b0b"/>
  <rect x="4" y="6" width="4" height="1" fill="#2a78d6"/>
  <rect x="8" y="6" width="4" height="1" fill="#184f95"/>
  <rect x="12" y="6" width="1" height="1" fill="#0b0b0b"/>
  <rect x="2" y="7" width="1" height="1" fill="#0b0b0b"/>
  <rect x="3" y="7" width="5" height="1" fill="#2a78d6"/>
  <rect x="8" y="7" width="5" height="1" fill="#184f95"/>
  <rect x="13" y="7" width="1" height="1" fill="#0b0b0b"/>
  <rect x="1" y="8" width="1" height="1" fill="#0b0b0b"/>
  <rect x="2" y="8" width="12" height="1" fill="#13396b"/>
  <rect x="14" y="8" width="1" height="1" fill="#0b0b0b"/>
  <rect x="2" y="9" width="1" height="1" fill="#0b0b0b"/>
  <rect x="3" y="9" width="9" height="1" fill="#fcfcfb"/>
  <rect x="12" y="9" width="1" height="1" fill="#f0efec"/>
  <rect x="13" y="9" width="1" height="1" fill="#0b0b0b"/>
  <rect x="2" y="10" width="1" height="1" fill="#0b0b0b"/>
  <rect x="3" y="10" width="1" height="1" fill="#fcfcfb"/>
  <rect x="4" y="10" width="2" height="1" fill="#fab219"/>
  <rect x="6" y="10" width="4" height="1" fill="#fcfcfb"/>
  <rect x="10" y="10" width="2" height="1" fill="#fab219"/>
  <rect x="12" y="10" width="1" height="1" fill="#f0efec"/>
  <rect x="13" y="10" width="1" height="1" fill="#0b0b0b"/>
  <rect x="2" y="11" width="1" height="1" fill="#0b0b0b"/>
  <rect x="3" y="11" width="1" height="1" fill="#fcfcfb"/>
  <rect x="4" y="11" width="2" height="1" fill="#cf920f"/>
  <rect x="6" y="11" width="4" height="1" fill="#fcfcfb"/>
  <rect x="10" y="11" width="2" height="1" fill="#cf920f"/>
  <rect x="12" y="11" width="1" height="1" fill="#f0efec"/>
  <rect x="13" y="11" width="1" height="1" fill="#0b0b0b"/>
  <rect x="2" y="12" width="1" height="1" fill="#0b0b0b"/>
  <rect x="3" y="12" width="9" height="1" fill="#fcfcfb"/>
  <rect x="12" y="12" width="1" height="1" fill="#f0efec"/>
  <rect x="13" y="12" width="1" height="1" fill="#0b0b0b"/>
  <rect x="2" y="13" width="1" height="1" fill="#0b0b0b"/>
  <rect x="3" y="13" width="4" height="1" fill="#fcfcfb"/>
  <rect x="7" y="13" width="1" height="1" fill="#0e2f59"/>
  <rect x="8" y="13" width="1" height="1" fill="#184f95"/>
  <rect x="9" y="13" width="3" height="1" fill="#fcfcfb"/>
  <rect x="12" y="13" width="1" height="1" fill="#f0efec"/>
  <rect x="13" y="13" width="1" height="1" fill="#0b0b0b"/>
  <rect x="2" y="14" width="1" height="1" fill="#0b0b0b"/>
  <rect x="3" y="14" width="4" height="1" fill="#fcfcfb"/>
  <rect x="7" y="14" width="1" height="1" fill="#0e2f59"/>
  <rect x="8" y="14" width="1" height="1" fill="#184f95"/>
  <rect x="9" y="14" width="3" height="1" fill="#fcfcfb"/>
  <rect x="12" y="14" width="1" height="1" fill="#f0efec"/>
  <rect x="13" y="14" width="1" height="1" fill="#0b0b0b"/>
  <rect x="2" y="15" width="1" height="1" fill="#0b0b0b"/>
  <rect x="3" y="15" width="4" height="1" fill="#e3e2dc"/>
  <rect x="7" y="15" width="1" height="1" fill="#0e2f59"/>
  <rect x="8" y="15" width="1" height="1" fill="#184f95"/>
  <rect x="9" y="15" width="4" height="1" fill="#e3e2dc"/>
  <rect x="13" y="15" width="1" height="1" fill="#0b0b0b"/>
</svg>
